# xmcd
#
# Track frame offsets:
#	150
#	27618
#	72242
#	129508
#	167733
#
# Disc length: 2348 seconds
#
# Revision: 1
# Processed by: cddbd v1.5.2PL0 Copyright (c) Steve Scherf et al.
# Submitted via: audiograbber 1.83.01
#
DISCID=42092a05
DTITLE=Grateful Dead - 73-11-10 Winterland Arena, San Francisco CA
DYEAR=1900
DGENRE=
TTITLE0=Big River
TTITLE1=Stella Blue
TTITLE2=Truckin
TTITLE3=Wharf Rat
TTITLE4=Sugar Magnolia
EXTD=
EXTT0=
EXTT1=
EXTT2=
EXTT3=
EXTT4=
PLAYORDER=
